<svg width="1600" height="1200" viewBox="0 0 1600 1200" fill="none" xmlns="http://www.w3.org/2000/svg">
  <defs>
    <linearGradient id="bg" x1="214" y1="98" x2="1328" y2="1118" gradientUnits="userSpaceOnUse">
      <stop offset="0" stop-color="#0F2032"/>
      <stop offset="0.52" stop-color="#091522"/>
      <stop offset="1" stop-color="#050C15"/>
    </linearGradient>
    <radialGradient id="glowA" cx="0" cy="0" r="1" gradientUnits="userSpaceOnUse" gradientTransform="translate(1218 232) rotate(90) scale(338 382)">
      <stop stop-color="#3EE0C4" stop-opacity="0.44"/>
      <stop offset="1" stop-color="#3EE0C4" stop-opacity="0"/>
    </radialGradient>
    <radialGradient id="glowB" cx="0" cy="0" r="1" gradientUnits="userSpaceOnUse" gradientTransform="translate(410 940) rotate(90) scale(296 360)">
      <stop stop-color="#75A4FF" stop-opacity="0.34"/>
      <stop offset="1" stop-color="#75A4FF" stop-opacity="0"/>
    </radialGradient>
    <linearGradient id="screen" x1="571" y1="356" x2="1028" y2="848" gradientUnits="userSpaceOnUse">
      <stop stop-color="#17324A"/>
      <stop offset="1" stop-color="#0D1E30"/>
    </linearGradient>
    <linearGradient id="frame" x1="473" y1="286" x2="1126" y2="934" gradientUnits="userSpaceOnUse">
      <stop stop-color="#1D3144"/>
      <stop offset="1" stop-color="#132131"/>
    </linearGradient>
    <linearGradient id="panel" x1="0" y1="0" x2="1" y2="1">
      <stop stop-color="#163047"/>
      <stop offset="1" stop-color="#0C1927"/>
    </linearGradient>
    <filter id="blurA" x="1042" y="57" width="510" height="350" filterUnits="userSpaceOnUse" color-interpolation-filters="sRGB">
      <feGaussianBlur stdDeviation="44"/>
    </filter>
    <filter id="blurB" x="118" y="704" width="586" height="472" filterUnits="userSpaceOnUse" color-interpolation-filters="sRGB">
      <feGaussianBlur stdDeviation="56"/>
    </filter>
    <filter id="shadow" x="392" y="218" width="814" height="788" filterUnits="userSpaceOnUse" color-interpolation-filters="sRGB">
      <feDropShadow dx="0" dy="34" stdDeviation="34" flood-color="#03070D" flood-opacity="0.48"/>
    </filter>
  </defs>

  <rect width="1600" height="1200" rx="52" fill="url(#bg)"/>
  <g opacity="0.54">
    <path d="M124 193H1476" stroke="rgba(255,255,255,0.08)" stroke-width="2"/>
    <path d="M124 363H1476" stroke="rgba(255,255,255,0.05)" stroke-width="2"/>
    <path d="M124 533H1476" stroke="rgba(255,255,255,0.04)" stroke-width="2"/>
    <path d="M124 703H1476" stroke="rgba(255,255,255,0.05)" stroke-width="2"/>
    <path d="M124 873H1476" stroke="rgba(255,255,255,0.04)" stroke-width="2"/>
    <path d="M124 1043H1476" stroke="rgba(255,255,255,0.05)" stroke-width="2"/>
    <path d="M287 106H287V1094" stroke="rgba(255,255,255,0.05)" stroke-width="2"/>
    <path d="M547 106V1094" stroke="rgba(255,255,255,0.04)" stroke-width="2"/>
    <path d="M807 106V1094" stroke="rgba(255,255,255,0.05)" stroke-width="2"/>
    <path d="M1067 106V1094" stroke="rgba(255,255,255,0.04)" stroke-width="2"/>
    <path d="M1327 106V1094" stroke="rgba(255,255,255,0.05)" stroke-width="2"/>
  </g>

  <g filter="url(#blurA)">
    <ellipse cx="1297" cy="232" rx="167" ry="87" fill="url(#glowA)"/>
  </g>
  <g filter="url(#blurB)">
    <ellipse cx="411" cy="940" rx="181" ry="118" fill="url(#glowB)"/>
  </g>

  <g filter="url(#shadow)">
    <rect x="474" y="289" width="652" height="500" rx="34" fill="url(#frame)"/>
    <rect x="513" y="326" width="574" height="426" rx="24" fill="url(#screen)"/>
    <rect x="628" y="812" width="346" height="26" rx="13" fill="#132131"/>
    <path d="M730 838H872L918 920H684L730 838Z" fill="#0D1723"/>
    <rect x="602" y="920" width="396" height="24" rx="12" fill="#162839"/>
  </g>

  <rect x="554" y="374" width="492" height="58" rx="20" fill="rgba(255,255,255,0.06)" stroke="rgba(255,255,255,0.08)" stroke-width="2"/>
  <rect x="585" y="393" width="116" height="20" rx="10" fill="#37D7BE" fill-opacity="0.24"/>
  <rect x="728" y="393" width="153" height="20" rx="10" fill="white" fill-opacity="0.08"/>
  <rect x="906" y="393" width="103" height="20" rx="10" fill="white" fill-opacity="0.08"/>

  <rect x="554" y="458" width="224" height="228" rx="28" fill="url(#panel)" stroke="rgba(255,255,255,0.08)" stroke-width="2"/>
  <circle cx="666" cy="541" r="56" fill="#10273B" stroke="rgba(62,224,196,0.32)" stroke-width="3"/>
  <path d="M666 497L705 515V548C705 582 682 610 666 618C650 610 627 582 627 548V515L666 497Z" fill="#3EE0C4" fill-opacity="0.84"/>
  <path d="M649 551L661 563L685 535" stroke="#082033" stroke-width="10" stroke-linecap="round" stroke-linejoin="round"/>
  <rect x="590" y="625" width="152" height="18" rx="9" fill="white" fill-opacity="0.08"/>
  <rect x="611" y="653" width="111" height="14" rx="7" fill="white" fill-opacity="0.06"/>

  <rect x="805" y="458" width="241" height="104" rx="28" fill="url(#panel)" stroke="rgba(255,255,255,0.08)" stroke-width="2"/>
  <rect x="840" y="492" width="102" height="18" rx="9" fill="white" fill-opacity="0.08"/>
  <rect x="840" y="526" width="170" height="12" rx="6" fill="white" fill-opacity="0.06"/>
  <rect x="840" y="545" width="133" height="12" rx="6" fill="white" fill-opacity="0.06"/>
  <rect x="956" y="487" width="58" height="58" rx="18" fill="#15364B"/>
  <circle cx="985" cy="516" r="18" fill="#79A2FF"/>

  <rect x="805" y="582" width="241" height="104" rx="28" fill="url(#panel)" stroke="rgba(255,255,255,0.08)" stroke-width="2"/>
  <rect x="840" y="615" width="88" height="18" rx="9" fill="white" fill-opacity="0.08"/>
  <rect x="840" y="647" width="173" height="12" rx="6" fill="white" fill-opacity="0.06"/>
  <rect x="840" y="666" width="149" height="12" rx="6" fill="white" fill-opacity="0.06"/>
  <path d="M972 652C972 630 990 612 1012 612V612C1034 612 1052 630 1052 652V686H972V652Z" fill="#112434"/>
  <circle cx="1012" cy="594" r="24" fill="#3EE0C4" fill-opacity="0.88"/>

  <rect x="270" y="658" width="226" height="168" rx="30" fill="url(#panel)" stroke="rgba(255,255,255,0.08)" stroke-width="2"/>
  <rect x="306" y="696" width="99" height="18" rx="9" fill="white" fill-opacity="0.08"/>
  <rect x="306" y="728" width="156" height="12" rx="6" fill="white" fill-opacity="0.06"/>
  <rect x="306" y="748" width="136" height="12" rx="6" fill="white" fill-opacity="0.06"/>
  <path d="M360 795C360 764 385 739 416 739V739C447 739 472 764 472 795V827H360V795Z" fill="#0F2030"/>
  <circle cx="416" cy="721" r="31" fill="#77A5FF"/>

  <rect x="1108" y="214" width="224" height="168" rx="30" fill="url(#panel)" stroke="rgba(255,255,255,0.08)" stroke-width="2"/>
  <rect x="1142" y="250" width="110" height="18" rx="9" fill="white" fill-opacity="0.08"/>
  <rect x="1142" y="283" width="154" height="12" rx="6" fill="white" fill-opacity="0.06"/>
  <rect x="1142" y="303" width="129" height="12" rx="6" fill="white" fill-opacity="0.06"/>
  <path d="M1188 349C1188 318 1214 293 1245 293V293C1277 293 1302 318 1302 349V381H1188V349Z" fill="#102133"/>
  <circle cx="1245" cy="273" r="30" fill="#3EE0C4" fill-opacity="0.92"/>

  <path d="M309 971C309 916 354 871 409 871H1191C1247 871 1291 916 1291 971V1006H309V971Z" fill="#09111B"/>
  <path d="M596 1006C596 929 659 866 736 866H864C941 866 1004 929 1004 1006H596Z" fill="#0F1C2A"/>
  <path d="M694 1006C694 950 739 905 795 905H805C861 905 906 950 906 1006H694Z" fill="#122536"/>
  <circle cx="800" cy="818" r="10" fill="white" fill-opacity="0.18"/>
</svg>
