<svg width="1600" height="1200" viewBox="0 0 1600 1200" fill="none" xmlns="http://www.w3.org/2000/svg">
  <defs>
    <linearGradient id="heroBgDark" x1="180" y1="110" x2="1360" y2="1084" gradientUnits="userSpaceOnUse">
      <stop offset="0" stop-color="#102031"/>
      <stop offset="0.52" stop-color="#0A1624"/>
      <stop offset="1" stop-color="#06111B"/>
    </linearGradient>
    <linearGradient id="monitorFrameDark" x1="0" y1="0" x2="1" y2="1">
      <stop stop-color="#21384D"/>
      <stop offset="1" stop-color="#122233"/>
    </linearGradient>
    <linearGradient id="monitorScreenDark" x1="0" y1="0" x2="1" y2="1">
      <stop stop-color="#16344B"/>
      <stop offset="1" stop-color="#0C2031"/>
    </linearGradient>
    <linearGradient id="cardDark" x1="0" y1="0" x2="1" y2="1">
      <stop stop-color="#16324A"/>
      <stop offset="1" stop-color="#0C1B2B"/>
    </linearGradient>
    <radialGradient id="heroGlowDarkA" cx="0" cy="0" r="1" gradientUnits="userSpaceOnUse" gradientTransform="translate(1250 260) rotate(90) scale(280 340)">
      <stop stop-color="#3EE0C4" stop-opacity="0.42"/>
      <stop offset="1" stop-color="#3EE0C4" stop-opacity="0"/>
    </radialGradient>
    <radialGradient id="heroGlowDarkB" cx="0" cy="0" r="1" gradientUnits="userSpaceOnUse" gradientTransform="translate(360 910) rotate(90) scale(240 320)">
      <stop stop-color="#78A4FF" stop-opacity="0.28"/>
      <stop offset="1" stop-color="#78A4FF" stop-opacity="0"/>
    </radialGradient>
  </defs>

  <rect width="1600" height="1200" rx="52" fill="url(#heroBgDark)"/>
  <rect x="76" y="76" width="1448" height="1048" rx="38" stroke="#FFFFFF" stroke-opacity="0.06" stroke-width="2"/>

  <circle cx="1262" cy="258" r="180" fill="url(#heroGlowDarkA)"/>
  <circle cx="342" cy="922" r="168" fill="url(#heroGlowDarkB)"/>

  <rect x="400" y="234" width="820" height="566" rx="40" fill="url(#monitorFrameDark)"/>
  <rect x="446" y="278" width="728" height="476" rx="28" fill="url(#monitorScreenDark)"/>
  <rect x="594" y="822" width="430" height="26" rx="13" fill="#142535"/>
  <path d="M720 848H904L958 936H666L720 848Z" fill="#0F1B28"/>
  <rect x="620" y="936" width="384" height="26" rx="13" fill="#172A3D"/>

  <rect x="494" y="330" width="632" height="58" rx="18" fill="#FFFFFF" fill-opacity="0.05" stroke="#FFFFFF" stroke-opacity="0.08" stroke-width="2"/>
  <rect x="528" y="348" width="126" height="22" rx="11" fill="#3EE0C4" fill-opacity="0.2"/>
  <rect x="684" y="348" width="188" height="22" rx="11" fill="#FFFFFF" fill-opacity="0.08"/>
  <rect x="902" y="348" width="174" height="22" rx="11" fill="#FFFFFF" fill-opacity="0.08"/>

  <rect x="494" y="420" width="238" height="250" rx="26" fill="url(#cardDark)" stroke="#FFFFFF" stroke-opacity="0.08" stroke-width="2"/>
  <circle cx="613" cy="510" r="56" fill="#122A3D" stroke="#3EE0C4" stroke-opacity="0.34" stroke-width="3"/>
  <path d="M613 470L654 490V528C654 566 628 597 613 605C598 597 572 566 572 528V490L613 470Z" fill="#3EE0C4" fill-opacity="0.88"/>
  <path d="M595 531L608 544L633 517" stroke="#0B1F2E" stroke-width="10" stroke-linecap="round" stroke-linejoin="round"/>
  <rect x="544" y="614" width="140" height="18" rx="9" fill="#FFFFFF" fill-opacity="0.08"/>
  <rect x="562" y="643" width="104" height="14" rx="7" fill="#FFFFFF" fill-opacity="0.06"/>

  <rect x="760" y="420" width="366" height="112" rx="26" fill="url(#cardDark)" stroke="#FFFFFF" stroke-opacity="0.08" stroke-width="2"/>
  <rect x="794" y="454" width="132" height="18" rx="9" fill="#FFFFFF" fill-opacity="0.08"/>
  <rect x="794" y="486" width="202" height="12" rx="6" fill="#FFFFFF" fill-opacity="0.06"/>
  <rect x="794" y="506" width="176" height="12" rx="6" fill="#FFFFFF" fill-opacity="0.06"/>
  <rect x="1020" y="446" width="68" height="68" rx="20" fill="#143148"/>
  <circle cx="1054" cy="480" r="22" fill="#78A4FF"/>

  <rect x="760" y="558" width="366" height="112" rx="26" fill="url(#cardDark)" stroke="#FFFFFF" stroke-opacity="0.08" stroke-width="2"/>
  <rect x="794" y="592" width="104" height="18" rx="9" fill="#FFFFFF" fill-opacity="0.08"/>
  <rect x="794" y="624" width="212" height="12" rx="6" fill="#FFFFFF" fill-opacity="0.06"/>
  <rect x="794" y="644" width="182" height="12" rx="6" fill="#FFFFFF" fill-opacity="0.06"/>
  <path d="M1014 621C1014 598 1033 580 1056 580C1079 580 1098 598 1098 621V660H1014V621Z" fill="#122536"/>
  <circle cx="1056" cy="560" r="24" fill="#3EE0C4" fill-opacity="0.9"/>

  <rect x="224" y="666" width="228" height="174" rx="28" fill="url(#cardDark)" stroke="#FFFFFF" stroke-opacity="0.08" stroke-width="2"/>
  <rect x="258" y="706" width="108" height="18" rx="9" fill="#FFFFFF" fill-opacity="0.08"/>
  <rect x="258" y="738" width="152" height="12" rx="6" fill="#FFFFFF" fill-opacity="0.06"/>
  <rect x="258" y="758" width="132" height="12" rx="6" fill="#FFFFFF" fill-opacity="0.06"/>
  <path d="M310 806C310 773 337 746 370 746C403 746 430 773 430 806V838H310V806Z" fill="#112334"/>
  <circle cx="370" cy="726" r="30" fill="#78A4FF"/>

  <rect x="1148" y="194" width="238" height="176" rx="28" fill="url(#cardDark)" stroke="#FFFFFF" stroke-opacity="0.08" stroke-width="2"/>
  <rect x="1184" y="232" width="116" height="18" rx="9" fill="#FFFFFF" fill-opacity="0.08"/>
  <rect x="1184" y="264" width="164" height="12" rx="6" fill="#FFFFFF" fill-opacity="0.06"/>
  <rect x="1184" y="284" width="142" height="12" rx="6" fill="#FFFFFF" fill-opacity="0.06"/>
  <path d="M1236 330C1236 297 1263 270 1296 270C1329 270 1356 297 1356 330V362H1236V330Z" fill="#102133"/>
  <circle cx="1296" cy="250" r="30" fill="#3EE0C4" fill-opacity="0.92"/>
  <rect x="1202" y="326" width="188" height="30" rx="15" fill="#3EE0C4" fill-opacity="0.18"/>
  <rect x="1242" y="335" width="110" height="12" rx="6" fill="#3EE0C4"/>
</svg>
